<svg width="120" height="120" viewBox="0 0 120 120" fill="none" xmlns="http://www.w3.org/2000/svg">
  <rect width="120" height="120" rx="16" fill="#697e89"/>
  <path d="M60 30C53.3726 30 48 35.3726 48 42C48 48.6274 53.3726 54 60 54C66.6274 54 72 48.6274 72 42C72 35.3726 66.6274 30 60 30ZM54 42C54 38.6863 56.6863 36 60 36C63.3137 36 66 38.6863 66 42C66 45.3137 63.3137 48 60 48C56.6863 48 54 45.3137 54 42Z" fill="white"/>
  <path d="M84 40C77.3726 40 72 45.3726 72 52C72 58.6274 77.3726 64 84 64C90.6274 64 96 58.6274 96 52C96 45.3726 90.6274 40 84 40ZM78 52C78 48.6863 80.6863 46 84 46C87.3137 46 90 48.6863 90 52C90 55.3137 87.3137 58 84 58C80.6863 58 78 55.3137 78 52Z" fill="#e8a74f"/>
  <path d="M36 40C29.3726 40 24 45.3726 24 52C24 58.6274 29.3726 64 36 64C42.6274 64 48 58.6274 48 52C48 45.3726 42.6274 40 36 40ZM30 52C30 48.6863 32.6863 46 36 46C39.3137 46 42 48.6863 42 52C42 55.3137 39.3137 58 36 58C32.6863 58 30 55.3137 30 52Z" fill="#719176"/>
  <path d="M30 72L36 78V90H30V72Z" fill="#6a5448"/>
  <path d="M42 72L48 78V90H42V72Z" fill="#6a5448"/>
  <path d="M72 72L78 78V90H72V72Z" fill="#6a5448"/>
  <path d="M84 72L90 78V90H84V72Z" fill="#6a5448"/>
  <path d="M24 72H96V66H24V72Z" fill="#ead9d0"/>
</svg>